<svg width="36" height="32" viewBox="0 0 36 32" fill="none" xmlns="http://www.w3.org/2000/svg">
<path d="M34.2077 0.466637H1.74087C0.779299 0.466637 0 1.24602 0 2.2075V22.5756C0 23.5371 0.779299 24.3165 1.74087 24.3165H13.8832V28.2613H9.15827C8.27034 28.2613 7.54796 28.9837 7.54796 29.8716C7.54796 30.7595 8.27034 31.4819 9.15827 31.4819H26.7903C27.6782 31.4819 28.4006 30.7595 28.4006 29.8716C28.4006 28.9837 27.6782 28.2613 26.7903 28.2613H22.0653V24.3165H34.2077C35.1693 24.3165 35.9486 23.5371 35.9486 22.5756V2.2075C35.9486 1.24602 35.1693 0.466637 34.2077 0.466637ZM33.3373 21.7052H2.6113V3.07794H33.3373V21.7052Z" fill="#515151"/>
<path d="M8.23352 13.3751L13.7246 15.9286C13.8665 15.9943 14.0176 16.0276 14.1739 16.0276C14.3774 16.0276 14.5757 15.9698 14.7481 15.8602C15.0569 15.6628 15.2413 15.3266 15.2413 14.9606V14.9325C15.2413 14.519 14.9989 14.1391 14.6236 13.9647L11.1893 12.3692L14.6237 10.7733C14.9989 10.5989 15.2413 10.219 15.2413 9.8056V9.77784C15.2413 9.4113 15.0568 9.07505 14.7482 8.87833C14.5774 8.76918 14.3785 8.71156 14.1732 8.71156C14.0184 8.71156 13.8631 8.74559 13.724 8.81018L8.23343 11.3633C7.85845 11.5379 7.61621 11.9177 7.61621 12.331V12.4074C7.61612 12.8202 7.85828 13.1999 8.23352 13.3751Z" fill="#515151"/>
<path d="M15.2902 18.5761C15.4905 18.8502 15.8126 19.0138 16.152 19.0138H16.1794C16.6453 19.0138 17.0535 18.7156 17.1954 18.2726L20.8126 7.06487C20.9164 6.74133 20.8588 6.38437 20.6585 6.10966C20.4582 5.83556 20.1361 5.67183 19.7967 5.67183H19.7693C19.3033 5.67183 18.8947 5.97004 18.7528 6.41309L15.1351 17.6217C15.0322 17.9455 15.0902 18.3022 15.2902 18.5761Z" fill="#515151"/>
<path d="M20.7072 9.80552C20.7072 10.2186 20.9494 10.5985 21.3248 10.7736L24.7591 12.3691L21.3248 13.9646C20.9496 14.1391 20.7072 14.5189 20.7072 14.9325V14.9605C20.7072 15.3265 20.8914 15.6628 21.2006 15.8602C21.3724 15.9697 21.5709 16.0276 21.7747 16.0276C21.9306 16.0276 22.0817 15.9942 22.2246 15.9281L27.7154 13.3747C28.0903 13.1999 28.3324 12.8201 28.3324 12.4072V12.3308C28.3324 11.9175 28.0902 11.5377 27.715 11.3632L22.2243 8.80983C22.0858 8.7455 21.9307 8.71138 21.7759 8.71138C21.5706 8.71138 21.3716 8.769 21.201 8.87781C20.8917 9.07487 20.7072 9.41112 20.7072 9.77766V9.80552Z" fill="#515151"/>
</svg>
